<?xml version="1.0" encoding="UTF-8" standalone="no"?>
<svg
   version="1.1"
   viewBox="0 0 125 75"
   fill="none"
   stroke="none"
   stroke-linecap="square"
   stroke-miterlimit="10"
   id="svg8"
   sodipodi:docname="logo.svg"
   inkscape:version="1.4 (86a8ad7, 2024-10-11)"
   width="125"
   height="75"
   xmlns:inkscape="http://www.inkscape.org/namespaces/inkscape"
   xmlns:sodipodi="http://sodipodi.sourceforge.net/DTD/sodipodi-0.dtd"
   xmlns="http://www.w3.org/2000/svg"
   xmlns:svg="http://www.w3.org/2000/svg">
  <defs
     id="defs8" />
  <sodipodi:namedview
     id="namedview8"
     pagecolor="#ffffff"
     bordercolor="#000000"
     borderopacity="0.25"
     inkscape:showpageshadow="2"
     inkscape:pageopacity="0.0"
     inkscape:pagecheckerboard="0"
     inkscape:deskcolor="#d1d1d1"
     showgrid="false"
     inkscape:zoom="5.5368415"
     inkscape:cx="59.058942"
     inkscape:cy="41.449624"
     inkscape:window-width="2560"
     inkscape:window-height="1490"
     inkscape:window-x="-12"
     inkscape:window-y="-12"
     inkscape:window-maximized="1"
     inkscape:current-layer="svg8"
     inkscape:clip-to-page="true" />
  <g
     clip-path="none"
     id="g8"
     transform="translate(-2.01181,-11.337271)">
    <path
       fill="#b22222"
       d="m 2.9110897,63.027294 v -28 h 5.375 L 20.192339,54.792919 h -2.828125 l 11.71875,-19.765625 h 5.312502 l 0.07813,28 h -6.078127 l -0.03125,-18.6875 h 1.109375 l -9.35938,15.734375 H 17.192339 L 7.6454647,44.339794 h 1.359375 v 18.6875 z m 34.5280903,0 12.484375,-28 h 6.390625 l 12.531246,28 H 62.03293 L 51.798555,38.308544 h 2.5625 l -10.28125,24.71875 z m 6.234375,-6 1.71875,-4.921875 h 14.40625 l 1.765625,4.921875 z m 26.28059,6 v -4.203125 l 17.328125,-20.875 0.796875,2.359375 H 70.28227 v -5.28125 h 23.5625 v 4.203125 l -17.28125,20.875 -0.8125,-2.359375 h 18.6875 v 5.28125 z m 24.964981,0 12.484374,-28 h 6.39063 l 12.53125,28 h -6.8125 L 109.2785,38.308544 h 2.5625 l -10.28125,24.71875 z m 6.234374,-6 1.71875,-4.921875 h 14.40625 l 1.76563,4.921875 z"
       fill-rule="nonzero"
       id="path4"
       inkscape:label="&quot;carne&quot;"
       style="display:inline" />
    <path
       fill="#ef9347"
       d="M 2.8042002,86.13449 V 69.337615 H 11.02295 q 3.171875,0 4.765625,1.203125 1.593751,1.1875 1.593751,3.15625 0,1.328125 -0.65625,2.296875 -0.640625,0.96875 -1.765626,1.5 -1.125,0.53125 -2.59375,0.53125 l 0.453125,-0.984375 q 1.578125,0 2.796875,0.515625 1.234376,0.515625 1.921876,1.53125 0.6875,1 0.6875,2.46875 0,2.15625 -1.71875,3.375 -1.703126,1.203125 -5.000001,1.203125 z m 3.875,-2.921875 H 11.21045 q 1.515625,0 2.296875,-0.484375 0.78125,-0.5 0.78125,-1.578125 0,-1.0625 -0.78125,-1.578125 -0.78125,-0.515625 -2.296875,-0.515625 H 6.3823252 V 76.22824 h 4.1562498 q 1.421875,0 2.171875,-0.484375 0.75,-0.5 0.75,-1.515625 0,-0.984375 -0.75,-1.46875 -0.75,-0.5 -2.171875,-0.5 H 6.6792002 Z M 28.63289,86.41574 q -3.578125,0 -5.59375,-1.984375 -2.015625,-2 -2.015625,-5.6875 v -9.40625 h 3.890625 v 9.265625 q 0,2.390625 0.984375,3.453125 0.984375,1.046875 2.765625,1.046875 1.765625,0 2.75,-1.046875 0.984373,-1.0625 0.984373,-3.453125 v -9.265625 h 3.84375 v 9.40625 q 0,3.6875 -2.015625,5.6875 -2.015625,1.984375 -5.593748,1.984375 z M 40.07608,86.13449 V 69.337615 h 7.28125 q 2.25,0 3.875,0.734375 1.640625,0.71875 2.53125,2.09375 0.890625,1.375 0.890625,3.265625 0,1.875 -0.890625,3.234375 -0.890625,1.34375 -2.53125,2.0625 -1.625,0.71875 -3.875,0.71875 h -5.109375 l 1.71875,-1.703125 v 6.390625 z m 10.6875,0 -4.203125,-6.09375 h 4.15625 l 4.25,6.09375 z m -6.796875,-5.953125 -1.71875,-1.828125 h 4.890625 q 1.796875,0 2.6875,-0.78125 0.890625,-0.78125 0.890625,-2.140625 0,-1.390625 -0.890625,-2.15625 -0.890625,-0.765625 -2.6875,-0.765625 h -4.890625 l 1.71875,-1.859375 z m 21.874329,6.234375 q -2,0 -3.671875,-0.625 -1.65625,-0.640625 -2.90625,-1.8125 -1.234375,-1.1875 -1.921875,-2.765625 -0.671875,-1.578125 -0.671875,-3.484375 0,-1.890625 0.671875,-3.46875 0.6875,-1.59375 1.9375,-2.765625 1.25,-1.171875 2.921875,-1.8125 1.6875,-0.640625 3.703125,-0.640625 2.234375,0 4.015625,0.75 1.796875,0.75 3.015625,2.15625 l -2.484375,2.3125 q -0.921875,-0.96875 -2,-1.4375 -1.078125,-0.46875 -2.34375,-0.46875 -1.234375,0 -2.25,0.390625 -1,0.375 -1.734375,1.109375 -0.734375,0.71875 -1.125,1.703125 -0.390625,0.984375 -0.390625,2.171875 0,1.1875 0.390625,2.171875 0.390625,0.984375 1.125,1.71875 0.734375,0.71875 1.734375,1.109375 1,0.375 2.1875,0.375 1.15625,0 2.25,-0.359375 1.09375,-0.375 2.125,-1.265625 l 2.203125,2.8125 q -1.359375,1.03125 -3.171875,1.578125 -1.8125,0.546875 -3.609375,0.546875 z m 3.234375,-2.640625 V 77.47824 h 3.546875 v 6.8125 z m 14.613335,2.640625 q -3.578125,0 -5.59375,-1.984375 -2.015625,-2 -2.015625,-5.6875 v -9.40625 h 3.890625 v 9.265625 q 0,2.390625 0.984375,3.453125 0.984375,1.046875 2.765625,1.046875 1.765625,0 2.75,-1.046875 0.984375,-1.0625 0.984375,-3.453125 v -9.265625 h 3.84375 v 9.40625 q 0,3.6875 -2.015625,5.6875 -2.015625,1.984375 -5.59375,1.984375 z m 15.021301,-10.3125 h 8.093755 v 3.015625 h -8.093755 z m 0.296875,6.90625 h 9.14063 v 3.125 H 95.13192 V 69.337615 h 12.70313 v 3.109375 h -8.82813 z m 12.22897,3.125 V 69.337615 h 7.28125 q 2.25,0 3.875,0.734375 1.64063,0.71875 2.53125,2.09375 0.89063,1.375 0.89063,3.265625 0,1.875 -0.89063,3.234375 -0.89062,1.34375 -2.53125,2.0625 -1.625,0.71875 -3.875,0.71875 h -5.10937 l 1.71875,-1.703125 v 6.390625 z m 10.6875,0 -4.20312,-6.09375 h 4.15625 l 4.25,6.09375 z m -6.79687,-5.953125 -1.71875,-1.828125 h 4.89062 q 1.79688,0 2.6875,-0.78125 0.89063,-0.78125 0.89063,-2.140625 0,-1.390625 -0.89063,-2.15625 -0.89062,-0.765625 -2.6875,-0.765625 h -4.89062 l 1.71875,-1.859375 z"
       fill-rule="nonzero"
       id="path6"
       inkscape:label="&quot;pan&quot; de abajo"
       style="display:inline" />
    <path
       stroke="#ef9347"
       stroke-width="1"
       stroke-linejoin="round"
       stroke-linecap="butt"
       d="m 2.574803,31.396326 v 0 c 0,-10.802168 27.744246,-19.559055 61.968502,-19.559055 34.224266,0 61.968505,8.756887 61.968505,19.559055 v 0 c -14.62878,-6.156357 -37.587203,-9.779528 -61.968505,-9.779528 -24.381298,0 -47.33972,3.623171 -61.968502,9.779528 z"
       fill-rule="evenodd"
       id="path8"
       style="display:inline;fill:#ef9347;fill-opacity:1"
       inkscape:label="&quot;pan&quot; de arriba" />
  </g>
  <path
     d="M 0,0 H 128.59317 V 100 H 0 Z"
     clip-rule="nonzero"
     id="path1" />
</svg>
